<svg width="100" height="100" viewBox="0 0 100 100" fill="none" xmlns="http://www.w3.org/2000/svg">
<path d="M50 50C48.8194 50 47.8292 49.6 47.0292 48.8C46.2292 48 45.8306 47.0111 45.8333 45.8333V12.5C45.8333 11.3194 46.2333 10.3292 47.0333 9.52917C47.8333 8.72917 48.8222 8.33056 50 8.33334C51.1806 8.33334 52.1708 8.73334 52.9708 9.53334C53.7708 10.3333 54.1694 11.3222 54.1667 12.5V45.8333C54.1667 47.0139 53.7667 48.0042 52.9667 48.8042C52.1667 49.6042 51.1778 50.0028 50 50ZM50 87.5C44.7917 87.5 39.9125 86.5097 35.3625 84.5292C30.8125 82.5486 26.8542 79.8764 23.4875 76.5125C20.1208 73.1431 17.4486 69.1847 15.4708 64.6375C13.4931 60.0903 12.5028 55.2111 12.5 50C12.5 45.7639 13.1944 41.6486 14.5833 37.6542C15.9722 33.6597 17.9861 29.9972 20.625 26.6667C21.3889 25.6944 22.3611 25.225 23.5417 25.2583C24.7222 25.2917 25.7639 25.7611 26.6667 26.6667C27.4306 27.4306 27.7778 28.3681 27.7083 29.4792C27.6389 30.5903 27.2569 31.6319 26.5625 32.6042C24.6875 35.1042 23.2639 37.8472 22.2917 40.8333C21.3194 43.8194 20.8333 46.875 20.8333 50C20.8333 58.125 23.6639 65.0181 29.325 70.6792C34.9861 76.3403 41.8778 79.1694 50 79.1667C58.125 79.1667 65.0181 76.3361 70.6792 70.675C76.3403 65.0139 79.1694 58.1222 79.1667 50C79.1667 46.8056 78.6972 43.6972 77.7583 40.675C76.8194 37.6528 75.3444 34.8931 73.3333 32.3958C72.6389 31.4931 72.2569 30.5028 72.1875 29.425C72.1181 28.3472 72.4653 27.4278 73.2292 26.6667C74.0625 25.8333 75.0694 25.3986 76.25 25.3625C77.4305 25.3264 78.4028 25.7611 79.1667 26.6667C81.875 30 83.9417 33.6458 85.3667 37.6042C86.7917 41.5625 87.5028 45.6944 87.5 50C87.5 55.2083 86.5097 60.0875 84.5292 64.6375C82.5486 69.1875 79.8764 73.1458 76.5125 76.5125C73.1431 79.8792 69.1847 82.5528 64.6375 84.5333C60.0903 86.5139 55.2111 87.5028 50 87.5Z" fill="#FA1212"/>
</svg>
