<svg width="65" height="55" viewBox="0 0 65 55" fill="none" xmlns="http://www.w3.org/2000/svg">
<path d="M32.145 28.9474C31.133 28.9474 30.2841 28.6695 29.5984 28.1137C28.9126 27.5579 28.5709 26.8709 28.5733 26.0526V2.89475C28.5733 2.07457 28.9162 1.38659 29.6019 0.830799C30.2877 0.27501 31.1354 -0.00191981 32.145 1.00164e-05C33.1569 1.00164e-05 34.0058 0.277905 34.6916 0.833694C35.3773 1.38948 35.719 2.0765 35.7166 2.89475V26.0526C35.7166 26.8728 35.3737 27.5608 34.688 28.1166C34.0022 28.6724 33.1546 28.9493 32.145 28.9474ZM32.145 55C27.6804 55 23.498 54.312 19.5977 52.936C15.6975 51.5601 12.3044 49.7036 9.41848 47.3666C6.53257 45.0257 4.24194 42.2757 2.5466 39.1166C0.851247 35.9575 0.00238111 32.5677 0 28.9474C0 26.0044 0.595277 23.1454 1.78583 20.3703C2.97639 17.5952 4.70269 15.0507 6.96474 12.7368C7.61955 12.0614 8.45294 11.7353 9.46491 11.7584C10.4769 11.7816 11.3698 12.1077 12.1437 12.7368C12.7985 13.2675 13.0961 13.9189 13.0366 14.6908C12.977 15.4627 12.6496 16.1864 12.0544 16.8618C10.4471 18.5987 9.2268 20.5044 8.39341 22.579C7.56002 24.6535 7.14333 26.7763 7.14333 28.9474C7.14333 34.5921 9.56968 39.381 14.4224 43.3139C19.2751 47.2469 25.1826 49.2124 32.145 49.2105C39.1097 49.2105 45.0184 47.244 49.8711 43.311C54.7238 39.3781 57.149 34.5902 57.1466 28.9474C57.1466 26.7281 56.7442 24.5686 55.9394 22.469C55.1346 20.3693 53.8702 18.452 52.1463 16.7171C51.551 16.0899 51.2236 15.4019 51.1641 14.6532C51.1045 13.9044 51.4022 13.2656 52.057 12.7368C52.7713 12.1579 53.6345 11.8559 54.6464 11.8308C55.6584 11.8057 56.4918 12.1077 57.1466 12.7368C59.4682 15.0526 61.2397 17.5855 62.4612 20.3355C63.6828 23.0855 64.2923 25.9561 64.2899 28.9474C64.2899 32.5658 63.4411 35.9555 61.7433 39.1166C60.0456 42.2776 57.755 45.0276 54.8715 47.3666C51.9832 49.7055 48.5901 51.563 44.6922 52.9389C40.7943 54.3149 36.6119 55.0019 32.145 55Z" fill="#FAB3B3"/>
</svg>
